# xmcd CD database file generated by Grip 3.3.1
# 
# Track frame offsets:
#       150
#       18000
#       35700
# 
# Disc length: 714 seconds
# 
# Revision: 1
# Processed by: cddbd v1.5.2PL0 Copyright (c) Steve Scherf et al.
# Submitted via: Grip 3.3.1
# 
DISCID=1902c803
DTITLE=creamy parfait - エンジェル☆マジック
DYEAR=2009
DGENRE=JPop
TTITLE0=エンジェル☆マジック
TTITLE1=恋するオトメゴコロ
TTITLE2=エンジェル☆マジック(inst.)
EXTD=
EXTT0=
EXTT1=
EXTT2=
PLAYORDER=
